<svg xmlns="http://www.w3.org/2000/svg" width="960" height="80" viewBox="0 0 960 80" fill="none">
  <rect width="960" height="80" fill="#E63946"/>
  <path d="M-40 22 C0 4, 44 4, 84 22 C124 40, 168 40, 208 22 C248 4, 292 4, 332 22 C372 40, 416 40, 456 22 C496 4, 540 4, 580 22 C620 40, 664 40, 704 22 C744 4, 788 4, 828 22 C868 40, 912 40, 952 22 C992 4, 1036 4, 1076 22" stroke="#D81A34" stroke-width="10" stroke-linecap="round"/>
  <path d="M-20 56 C20 38, 64 38, 104 56 C144 74, 188 74, 228 56 C268 38, 312 38, 352 56 C392 74, 436 74, 476 56 C516 38, 560 38, 600 56 C640 74, 684 74, 724 56 C764 38, 808 38, 848 56 C888 74, 932 74, 972 56 C1012 38, 1056 38, 1096 56" stroke="#F04C5D" stroke-width="10" stroke-linecap="round" opacity="0.68"/>
</svg>
